<svg width="192" height="192" viewBox="0 0 192 192" fill="none" xmlns="http://www.w3.org/2000/svg" role="img" aria-labelledby="title desc">
  <title id="title">Qantara AI — symbole</title>
  <desc id="desc">Symbole Qantara AI : lettre Q géométrique avec arche de pont interne.</desc>
  <defs>
    <linearGradient id="qantaraGradient" x1="27" y1="31" x2="168" y2="169" gradientUnits="userSpaceOnUse">
      <stop offset="0" stop-color="#67E8F9"/>
      <stop offset="0.48" stop-color="#22D3EE"/>
      <stop offset="1" stop-color="#D6A85A"/>
    </linearGradient>
    <linearGradient id="bridgeGradient" x1="50" y1="89" x2="143" y2="116" gradientUnits="userSpaceOnUse">
      <stop offset="0" stop-color="#D6A85A"/>
      <stop offset="1" stop-color="#F5D48A"/>
    </linearGradient>
  </defs>
  <path d="M96 24C135.765 24 168 56.235 168 96C168 135.765 135.765 168 96 168C56.235 168 24 135.765 24 96C24 56.235 56.235 24 96 24Z" stroke="url(#qantaraGradient)" stroke-width="15" stroke-linecap="round" stroke-linejoin="round"/>
  <path d="M141 141L174 174" stroke="#D6A85A" stroke-width="15" stroke-linecap="round"/>
  <path d="M55 109C65 82 127 82 137 109" stroke="url(#bridgeGradient)" stroke-width="8.5" stroke-linecap="round"/>
  <path d="M49 120H143" stroke="#CBD5E1" stroke-opacity="0.76" stroke-width="6.5" stroke-linecap="round"/>
  <path d="M66 120V105" stroke="#22D3EE" stroke-opacity="0.76" stroke-width="5.5" stroke-linecap="round"/>
  <path d="M96 120V91" stroke="#22D3EE" stroke-opacity="0.88" stroke-width="5.5" stroke-linecap="round"/>
  <path d="M126 120V105" stroke="#22D3EE" stroke-opacity="0.76" stroke-width="5.5" stroke-linecap="round"/>
  <circle cx="96" cy="91" r="4.5" fill="#F8FAFC"/>
</svg>
