<svg width="920" height="220" viewBox="0 0 920 220" fill="none" xmlns="http://www.w3.org/2000/svg" role="img" aria-labelledby="title desc">
  <title id="title">Qantara AI — logo principal fond clair</title>
  <desc id="desc">Logo horizontal de Qantara AI optimisé pour fond clair.</desc>
  <defs>
    <linearGradient id="qantaraGradient" x1="14" y1="22" x2="166" y2="166" gradientUnits="userSpaceOnUse">
      <stop offset="0" stop-color="#0891B2"/>
      <stop offset="0.52" stop-color="#0E7490"/>
      <stop offset="1" stop-color="#B9852F"/>
    </linearGradient>
    <linearGradient id="bridgeGradient" x1="36" y1="76" x2="128" y2="103" gradientUnits="userSpaceOnUse">
      <stop offset="0" stop-color="#B9852F"/>
      <stop offset="1" stop-color="#D6A85A"/>
    </linearGradient>
  </defs>

  <g transform="translate(34 28)">
    <path d="M82 14C119.555 14 150 44.445 150 82C150 119.555 119.555 150 82 150C44.445 150 14 119.555 14 82C14 44.445 44.445 14 82 14Z" stroke="url(#qantaraGradient)" stroke-width="14" stroke-linecap="round" stroke-linejoin="round"/>
    <path d="M126 126L162 162" stroke="#B9852F" stroke-width="14" stroke-linecap="round"/>
    <path d="M43 93C51.5 67.5 112.5 67.5 121 93" stroke="url(#bridgeGradient)" stroke-width="8" stroke-linecap="round"/>
    <path d="M36 104H128" stroke="#334155" stroke-opacity="0.62" stroke-width="6" stroke-linecap="round"/>
    <path d="M52 104V90" stroke="#0E7490" stroke-opacity="0.72" stroke-width="5" stroke-linecap="round"/>
    <path d="M82 104V76" stroke="#0E7490" stroke-opacity="0.88" stroke-width="5" stroke-linecap="round"/>
    <path d="M112 104V90" stroke="#0E7490" stroke-opacity="0.72" stroke-width="5" stroke-linecap="round"/>
    <circle cx="82" cy="76" r="4" fill="#061223"/>
  </g>

  <g transform="translate(242 55)">
    <text x="0" y="62" fill="#061223" font-family="Inter, Geist, IBM Plex Sans, Segoe UI, Arial, sans-serif" font-size="72" font-weight="760" letter-spacing="-2.6">Qantara</text>
    <text x="342" y="62" fill="#0E7490" font-family="Inter, Geist, IBM Plex Sans, Segoe UI, Arial, sans-serif" font-size="72" font-weight="760" letter-spacing="-2.6">AI</text>
    <text x="3" y="105" fill="#475569" font-family="Inter, Geist, IBM Plex Sans, Segoe UI, Arial, sans-serif" font-size="22" font-weight="500" letter-spacing="0.9">CONSULTING · ACADEMY · STUDIO · GOVERNANCE</text>
  </g>
</svg>
