<svg width="920" height="220" viewBox="0 0 920 220" fill="none" xmlns="http://www.w3.org/2000/svg" role="img" aria-labelledby="title desc">
  <title id="title">Qantara AI — logo monochrome</title>
  <desc id="desc">Logo horizontal monochrome de Qantara AI.</desc>
  <g transform="translate(34 28)">
    <path d="M82 14C119.555 14 150 44.445 150 82C150 119.555 119.555 150 82 150C44.445 150 14 119.555 14 82C14 44.445 44.445 14 82 14Z" stroke="#F8FAFC" stroke-width="14" stroke-linecap="round" stroke-linejoin="round"/>
    <path d="M126 126L162 162" stroke="#F8FAFC" stroke-width="14" stroke-linecap="round"/>
    <path d="M43 93C51.5 67.5 112.5 67.5 121 93" stroke="#F8FAFC" stroke-width="8" stroke-linecap="round"/>
    <path d="M36 104H128" stroke="#F8FAFC" stroke-opacity="0.72" stroke-width="6" stroke-linecap="round"/>
    <path d="M52 104V90" stroke="#F8FAFC" stroke-opacity="0.72" stroke-width="5" stroke-linecap="round"/>
    <path d="M82 104V76" stroke="#F8FAFC" stroke-opacity="0.86" stroke-width="5" stroke-linecap="round"/>
    <path d="M112 104V90" stroke="#F8FAFC" stroke-opacity="0.72" stroke-width="5" stroke-linecap="round"/>
    <circle cx="82" cy="76" r="4" fill="#F8FAFC"/>
  </g>
  <g transform="translate(242 55)">
    <text x="0" y="62" fill="#F8FAFC" font-family="Inter, Geist, IBM Plex Sans, Segoe UI, Arial, sans-serif" font-size="72" font-weight="760" letter-spacing="-2.6">Qantara AI</text>
    <text x="3" y="105" fill="#F8FAFC" fill-opacity="0.70" font-family="Inter, Geist, IBM Plex Sans, Segoe UI, Arial, sans-serif" font-size="22" font-weight="500" letter-spacing="0.9">CONSULTING · ACADEMY · STUDIO · GOVERNANCE</text>
  </g>
</svg>
